<svg width="32" height="32" viewBox="0 0 32 32" fill="none" xmlns="http://www.w3.org/2000/svg">
<path d="M26.918 2.5H4.41797C3.82123 2.5 3.24894 2.73705 2.82698 3.15901C2.40502 3.58097 2.16797 4.15326 2.16797 4.75V27.25C2.16797 27.8467 2.40502 28.419 2.82698 28.841C3.24894 29.2629 3.82123 29.5 4.41797 29.5H26.918C27.5147 29.5 28.087 29.2629 28.509 28.841C28.9309 28.419 29.168 27.8467 29.168 27.25V4.75C29.168 4.15326 28.9309 3.58097 28.509 3.15901C28.087 2.73705 27.5147 2.5 26.918 2.5Z" stroke="url(#paint0_linear_5895_17021)" stroke-width="4" stroke-linejoin="round"/>
<path d="M7.74609 20.3762L11.9888 16.1335L15.2798 19.4163L23.1661 11.5" stroke="url(#paint1_linear_5895_17021)" stroke-width="4" stroke-linecap="round" stroke-linejoin="round"/>
<path d="M17.168 11.5H23.168V17.5" stroke="url(#paint2_linear_5895_17021)" stroke-width="4" stroke-linecap="round" stroke-linejoin="round"/>
<defs>
<linearGradient id="paint0_linear_5895_17021" x1="-2.94126" y1="35.2574" x2="31.645" y2="18.7549" gradientUnits="userSpaceOnUse">
<stop stop-color="#2F80EC"/>
<stop offset="1" stop-color="#8364F6"/>
</linearGradient>
<linearGradient id="paint1_linear_5895_17021" x1="4.82816" y1="22.269" x2="19.202" y2="10.3546" gradientUnits="userSpaceOnUse">
<stop stop-color="#2F80EC"/>
<stop offset="1" stop-color="#8364F6"/>
</linearGradient>
<linearGradient id="paint2_linear_5895_17021" x1="16.0326" y1="18.7794" x2="23.7184" y2="15.1122" gradientUnits="userSpaceOnUse">
<stop stop-color="#2F80EC"/>
<stop offset="1" stop-color="#8364F6"/>
</linearGradient>
</defs>
</svg>
