<svg width="128" height="24" viewBox="0 0 128 24" fill="none" xmlns="http://www.w3.org/2000/svg">
<g clip-path="url(#clip0_4484_232)">
<path d="M12.268 24C10.7923 24 9.35143 23.552 8.13585 22.7153C6.92027 21.8787 5.98728 20.6927 5.46027 19.3144L0.284771 5.7766C-0.781071 2.99058 1.27705 2.23212e-09 4.26045 2.23212e-09C5.22887 -2.96724e-05 6.17418 0.295821 6.9698 0.847934C7.76543 1.40005 8.37337 2.18207 8.71222 3.08927L14.7532 19.2653L20.4455 4.54209C20.5338 4.31318 20.5651 4.06619 20.5367 3.82248C20.5082 3.57876 20.4208 3.34563 20.2821 3.14324C20.1434 2.94085 19.9574 2.77528 19.7404 2.66084C19.5233 2.54639 19.2817 2.48651 19.0363 2.48637C18.5654 2.48641 18.1065 2.63525 17.7252 2.91162C17.3438 3.188 17.0596 3.57778 16.913 4.02532L14.188 12.2291L12.6329 8.98191L14.688 2.82789C14.9579 2.0054 15.4807 1.28915 16.1817 0.781334C16.8827 0.273516 17.7263 6.76353e-05 18.5919 2.23212e-09V2.23212e-09C21.6142 2.23212e-09 23.6938 3.03424 22.6047 5.85256L16.7862 20.903C16.4335 21.8148 15.8132 22.5986 15.0068 23.1513C14.2004 23.7041 13.2457 23.9999 12.268 24ZM12.9385 21.5136L6.29943 3.74121C6.162 3.37251 5.91518 3.05461 5.59202 2.83012C5.26886 2.60563 4.8848 2.48527 4.49132 2.48517C4.17848 2.48558 3.87042 2.56203 3.59368 2.70793C3.31695 2.85383 3.07982 3.06482 2.90273 3.32272C2.72564 3.58061 2.61389 3.87769 2.57711 4.18836C2.54033 4.49904 2.57962 4.814 2.69159 5.10612L7.5447 17.8005C7.96229 18.8926 8.70149 19.8323 9.66458 20.4953C10.6277 21.1583 11.7693 21.5134 12.9385 21.5136Z" fill="#F7F9FA"/>
<path d="M39.7611 6.52285C39.8992 6.1479 39.9584 5.83215 39.9584 5.57561C39.9584 4.49023 39.1296 4.13501 38.3205 4.13501C37.5706 4.13501 37.097 4.5889 36.801 5.55588L33.7619 15.2257H33.7224L30.8018 5.55588C30.5057 4.5889 30.0321 4.13501 29.1638 4.13501C28.3547 4.13501 27.5259 4.49023 27.5259 5.57561C27.5259 5.83215 27.5851 6.1479 27.7232 6.52285L31.7095 17.7319C32.045 18.6594 32.6765 18.8568 33.683 18.8568C34.6894 18.8568 35.3209 18.6594 35.6564 17.7319L39.7611 6.52285Z" fill="#F7F9FA"/>
<path d="M49.2658 13.9824C50.2327 13.9824 50.5288 13.7258 50.5288 12.7391C50.5288 10.371 48.6343 8.02266 45.3189 8.02266C41.9049 8.02266 39.8723 10.2724 39.8723 13.6272C39.8723 16.1334 41.3918 18.8568 45.4176 18.8568C47.1542 18.8568 49.9367 18.0476 49.9367 16.311C49.9367 15.7782 49.4434 15.1862 48.7527 15.1862C47.5884 15.1862 47.5884 16.607 45.4176 16.607C43.7402 16.607 42.7535 15.5019 42.7535 13.9824H49.2658ZM42.7535 12.3247C43.0692 10.9236 43.9375 10.0355 45.3781 10.0355C46.6608 10.0355 47.6476 11.0025 47.8054 12.3247H42.7535Z" fill="#F7F9FA"/>
<path d="M52.5477 17.4162C52.5477 18.1858 52.8634 18.8568 53.9883 18.8568C55.1131 18.8568 55.4289 18.1858 55.4289 17.4162V14.0613C55.4289 11.6735 56.0604 10.8644 57.2247 10.8644H57.7378C58.4482 10.8644 59.1586 10.4894 59.1586 9.42378C59.1586 8.61468 58.4877 8.02266 57.5799 8.02266C56.1788 8.02266 55.5275 9.26591 55.192 10.4697H55.1526V9.36458C55.1526 8.49628 54.5803 8.02266 53.8501 8.02266C53.12 8.02266 52.5477 8.49628 52.5477 9.36458V17.4162Z" fill="#F7F9FA"/>
<path d="M59.9722 11.2393C59.9722 13.1733 61.2747 13.864 62.9521 14.2784L64.6492 14.6928C65.6754 14.9494 66.3069 15.0678 66.3069 15.7979C66.3069 16.39 65.6557 16.8439 64.6295 16.8439C62.4982 16.8439 62.3798 15.0678 61.1365 15.0678C60.3274 15.0678 59.9722 15.6401 59.9722 16.2716C59.9722 17.6924 62.143 18.8568 64.7479 18.8568C66.9187 18.8568 69.1881 17.7714 69.1881 15.423C69.1881 13.4101 67.2344 12.7194 65.5965 12.3445L64.3927 12.0682C63.5046 11.8708 62.8534 11.713 62.8534 11.042C62.8534 10.4302 63.5046 10.154 64.5111 10.154C66.3266 10.154 66.3661 11.4761 67.4909 11.4761C68.2408 11.4761 68.6947 10.8841 68.6947 10.2132C68.6947 8.89096 66.4845 8.02266 64.294 8.02266C62.3008 8.02266 59.9722 8.89096 59.9722 11.2393Z" fill="#F7F9FA"/>
<path d="M80.794 9.46325C80.794 8.69362 80.4782 8.02266 79.3534 8.02266C78.2285 8.02266 77.9128 8.69362 77.9128 9.46325V14.2192C77.9128 15.6598 76.7287 16.4886 75.7223 16.4886C74.479 16.4886 73.9067 15.6598 73.9067 14.4955V9.46325C73.9067 8.69362 73.591 8.02266 72.4661 8.02266C71.3413 8.02266 71.0255 8.69362 71.0255 9.46325V15.0678C71.0255 17.9884 72.92 18.8568 74.6566 18.8568C76.2946 18.8568 77.3405 18.1069 78.1496 17.0412H78.1891V17.4162C78.1891 18.2845 78.5837 18.8568 79.4915 18.8568C80.3993 18.8568 80.794 18.2845 80.794 17.4162V9.46325Z" fill="#F7F9FA"/>
<path d="M82.6357 11.2393C82.6357 13.1733 83.9382 13.864 85.6156 14.2784L87.3128 14.6928C88.3389 14.9494 88.9704 15.0678 88.9704 15.7979C88.9704 16.39 88.3192 16.8439 87.293 16.8439C85.1617 16.8439 85.0433 15.0678 83.8001 15.0678C82.991 15.0678 82.6357 15.6401 82.6357 16.2716C82.6357 17.6924 84.8065 18.8568 87.4114 18.8568C89.5822 18.8568 91.8516 17.7714 91.8516 15.423C91.8516 13.4101 89.8979 12.7194 88.26 12.3445L87.0562 12.0682C86.1682 11.8708 85.5169 11.713 85.5169 11.042C85.5169 10.4302 86.1682 10.154 87.1746 10.154C88.9902 10.154 89.0296 11.4761 90.1545 11.4761C90.9044 11.4761 91.3583 10.8841 91.3583 10.2132C91.3583 8.89096 89.148 8.02266 86.9575 8.02266C84.9644 8.02266 82.6357 8.89096 82.6357 11.2393Z" fill="#F7F9FA"/>
<path d="M94.0443 17.2385C94.0443 18.2055 94.6758 18.8568 95.6625 18.8568C96.6492 18.8568 97.2807 18.2055 97.2807 17.2385V13.3904H100.872C104.01 13.3904 105.806 11.4761 105.806 8.89096C105.806 5.73348 103.615 4.39156 100.892 4.39156H95.9388C94.7942 4.39156 94.0443 4.84544 94.0443 6.28604V17.2385ZM97.2807 6.87807H99.9646C101.563 6.87807 102.569 7.4701 102.569 8.89096C102.569 10.1145 101.603 10.9039 100.3 10.9039H97.2807V6.87807Z" fill="#F7F9FA"/>
<path d="M116.423 10.9828C116.423 8.9107 114.509 8.02266 111.746 8.02266C108.786 8.02266 107.167 9.48299 107.167 10.6276C107.167 11.2196 107.661 11.7327 108.391 11.7327C109.536 11.7327 109.595 10.154 111.726 10.154C112.693 10.154 113.542 10.5092 113.542 11.338C113.542 12.1668 112.989 12.3247 112.298 12.4037L110.542 12.601C108.332 12.8575 106.516 13.5285 106.516 15.9163C106.516 17.7319 108.134 18.8568 109.772 18.8568C111.292 18.8568 112.594 18.4226 113.719 17.1793C113.759 18.0674 114.173 18.8568 115.416 18.8568C116.107 18.8568 116.719 18.4029 116.719 17.7516C116.719 17.2977 116.423 17.0215 116.423 15.8177V10.9828ZM113.542 14.8704C113.542 15.9361 112.575 16.9623 110.996 16.9623C110.009 16.9623 109.397 16.4294 109.397 15.7782C109.397 14.9099 110.049 14.535 111.252 14.3573L112.298 14.1995C112.634 14.1403 113.226 14.0416 113.542 13.7456V14.8704Z" fill="#F7F9FA"/>
<path d="M120.889 9.10804C120.712 8.45681 120.179 8.02266 119.409 8.02266C118.639 8.02266 118.008 8.61468 118.008 9.40405C118.008 9.73953 118.126 10.0553 118.363 10.746L121.363 19.2909C121.146 20.1789 120.731 20.1987 120.356 20.1987H120.06C119.291 20.1987 118.738 20.5934 118.738 21.363C118.738 22.0537 119.271 22.6852 120.554 22.6852C122.369 22.6852 123.159 21.659 123.849 19.6856L127.184 10.2329C127.323 9.85794 127.401 9.56192 127.401 9.32511C127.401 8.9699 127.066 8.02266 125.921 8.02266C125.132 8.02266 124.737 8.57521 124.54 9.30538L122.784 15.8374H122.744L120.889 9.10804Z" fill="#F7F9FA"/>
</g>
<defs>
<clipPath id="clip0_4484_232">
<rect width="127.401" height="24" fill="white"/>
</clipPath>
</defs>
</svg>
