<svg width="30" height="30" viewBox="0 0 30 30" fill="none" xmlns="http://www.w3.org/2000/svg">
<path d="M26.7 5.50495C28.5771 7.77857 29.7269 10.5643 30 13.5H26.91C26.61 11.355 25.74 9.32995 24.39 7.64995L26.7 5.50495ZM16.5 0.0749512C19.44 0.359951 22.215 1.49995 24.495 3.38995L22.35 5.53495C20.6554 4.20593 18.6351 3.35634 16.5 3.07495V0.0749512ZM13.5 0.0899512C10.56 0.389951 7.785 1.54495 5.505 3.40495L7.65 5.53495C9.34561 4.21035 11.3661 3.36588 13.5 3.08995V0.0899512ZM3.39 5.50495L5.445 7.58995V7.64995C4.12039 9.34556 3.27593 11.3661 3 13.5H0C0.315 10.56 1.5 7.76995 3.39 5.50495ZM0 18V25.5L2.4 23.1C5.07 27.2549 9.705 30 15 30C22.23 30 28.305 24.825 29.7 18H26.625C25.29 23.175 20.58 27 15 27C10.575 27 6.585 24.585 4.5 21L7.5 18H0ZM15 22.5L17.34 17.37L22.5 15L17.34 12.66L15 7.49995L12.645 12.66L7.5 15L12.645 17.37L15 22.5Z" fill="url(#paint0_linear_5895_16987)"/>
<defs>
<linearGradient id="paint0_linear_5895_16987" x1="-5.67692" y1="36.381" x2="32.7166" y2="18.0161" gradientUnits="userSpaceOnUse">
<stop stop-color="#2F80EC"/>
<stop offset="1" stop-color="#8364F6"/>
</linearGradient>
</defs>
</svg>
