<svg width="37" height="36" viewBox="0 0 37 36" fill="none" xmlns="http://www.w3.org/2000/svg">
<path d="M7.83203 7.5H10.832V12H25.832V7.5H28.832V15H31.832V7.5C31.832 5.85 30.482 4.5 28.832 4.5H22.562C21.932 2.76 20.282 1.5 18.332 1.5C16.382 1.5 14.732 2.76 14.102 4.5H7.83203C6.18203 4.5 4.83203 5.85 4.83203 7.5V28.5C4.83203 30.15 6.18203 31.5 7.83203 31.5H16.832V28.5H7.83203V7.5ZM18.332 4.5C19.157 4.5 19.832 5.175 19.832 6C19.832 6.825 19.157 7.5 18.332 7.5C17.507 7.5 16.832 6.825 16.832 6C16.832 5.175 17.507 4.5 18.332 4.5Z" fill="url(#paint0_linear_5895_17007)"/>
<path d="M31.832 17.25L23.597 25.5L19.082 21L16.832 23.25L23.597 30L34.082 19.5L31.832 17.25Z" fill="url(#paint1_linear_5895_17007)"/>
<defs>
<linearGradient id="paint0_linear_5895_17007" x1="-0.277199" y1="37.8971" x2="35.5722" y2="22.5025" gradientUnits="userSpaceOnUse">
<stop stop-color="#2F80EC"/>
<stop offset="1" stop-color="#8364F6"/>
</linearGradient>
<linearGradient id="paint1_linear_5895_17007" x1="13.5678" y1="32.7187" x2="32.7158" y2="20.358" gradientUnits="userSpaceOnUse">
<stop stop-color="#2F80EC"/>
<stop offset="1" stop-color="#8364F6"/>
</linearGradient>
</defs>
</svg>
